<svg xmlns="http://www.w3.org/2000/svg" viewBox="0 0 500 500" width="100%" height="100%">
  <defs>
    <!-- Deep Space Background -->
    <radialGradient id="bgDepth" cx="50%" cy="50%" r="70%">
      <stop offset="0%" stop-color="#14161C" />
      <stop offset="100%" stop-color="#090A0D" />
    </radialGradient>

    <!-- Forged Metal Gradients -->
    <linearGradient id="metalDark" x1="0%" y1="0%" x2="100%" y2="100%">
      <stop offset="0%" stop-color="#2C313E" />
      <stop offset="100%" stop-color="#11131A" />
    </linearGradient>
    <linearGradient id="metalLight" x1="0%" y1="0%" x2="0%" y2="100%">
      <stop offset="0%" stop-color="#464D60" />
      <stop offset="100%" stop-color="#1D212B" />
    </linearGradient>
    
    <!-- Inner Forge Core (Molten Energy) -->
    <radialGradient id="coreEnergy" cx="50%" cy="50%" r="50%">
      <stop offset="0%" stop-color="#FFFFFF" />
      <stop offset="20%" stop-color="#FFDD7A" />
      <stop offset="60%" stop-color="#FF5D00" />
      <stop offset="100%" stop-color="#FF5D00" stop-opacity="0" />
    </radialGradient>

    <!-- Advanced Glow Filter -->
    <filter id="hyperGlow" x="-50%" y="-50%" width="200%" height="200%">
      <feGaussianBlur stdDeviation="8" result="blur1" />
      <feGaussianBlur stdDeviation="20" result="blur2" />
      <feMerge>
        <feMergeNode in="blur2" />
        <feMergeNode in="blur1" />
        <feMergeNode in="SourceGraphic" />
      </feMerge>
    </filter>

    <!-- Drop Shadow for 3D Overlap -->
    <filter id="shadow" x="-20%" y="-20%" width="140%" height="140%">
      <feDropShadow dx="0" dy="8" stdDeviation="6" flood-color="#000" flood-opacity="0.8"/>
    </filter>
  </defs>

  <rect width="500" height="500" fill="url(#bgDepth)" />

  <!-- Background Developer Grid -->
  <g stroke="#ffffff" stroke-opacity="0.03" stroke-width="1">
    <pattern id="grid" width="40" height="40" patternUnits="userSpaceOnUse">
      <path d="M 40 0 L 0 0 0 40" fill="none" />
      <circle cx="0" cy="0" r="1.5" fill="#ffffff" fill-opacity="0.1"/>
    </pattern>
    <rect width="500" height="500" fill="url(#grid)" />
  </g>

  <!-- THE TESSERACT HYPER-STRUCTURE -->
  <g transform="translate(250, 220) scale(1.2)">
    <!-- Back inner shell -->
    <polygon points="0,-40 69.28,-80 0,-120 -69.28,-80" fill="#0A0B0E" stroke="#FF5D00" stroke-width="1" opacity="0.4"/>
    
    <!-- Glowing Inner Core Sphere -->
    <circle cx="0" cy="-20" r="45" fill="url(#coreEnergy)" filter="url(#hyperGlow)" opacity="0.8" />
    
    <!-- Core Graph Nodes (Floating) -->
    <g filter="url(#hyperGlow)">
      <line x1="0" y1="-20" x2="-30" y2="-5" stroke="#FFDD7A" stroke-width="2"/>
      <line x1="0" y1="-20" x2="30" y2="-5" stroke="#FFDD7A" stroke-width="2"/>
      <line x1="0" y1="-20" x2="0" y2="15" stroke="#FFDD7A" stroke-width="2"/>
      <circle cx="-30" cy="-5" r="4" fill="#FFF" />
      <circle cx="30" cy="-5" r="4" fill="#FFF" />
      <circle cx="0" cy="15" r="4" fill="#FFF" />
      <circle cx="0" cy="-20" r="6" fill="#FFF" />
    </g>

    <!-- Front Left Machined Arm -->
    <path d="M -86.6,-50 L 0,0 L 0,60 L -86.6,10 Z" fill="url(#metalDark)" filter="url(#shadow)" />
    <!-- Front Right Machined Arm -->
    <path d="M 86.6,-50 L 0,0 L 0,60 L 86.6,10 Z" fill="url(#metalLight)" filter="url(#shadow)" />
    <!-- Front Top Machined Arm (Hovering over core) -->
    <path d="M 0,-100 L 86.6,-50 L 0,0 L -86.6,-50 Z" fill="none" stroke="url(#metalLight)" stroke-width="14" stroke-linejoin="bevel" filter="url(#shadow)" />
    
    <!-- Outer Graph Nodes (Connecting human intent to the core) -->
    <circle cx="-86.6" cy="-50" r="6" fill="#FF5D00" filter="url(#hyperGlow)"/>
    <circle cx="86.6" cy="-50" r="6" fill="#FF5D00" filter="url(#hyperGlow)"/>
    <circle cx="0" cy="60" r="6" fill="#FF5D00" filter="url(#hyperGlow)"/>
    
    <!-- Precision technical lines -->
    <path d="M -86.6,-50 L -120,-70" stroke="#464D60" stroke-width="1.5" stroke-dasharray="4 4" />
    <path d="M 86.6,-50 L 120,-70" stroke="#464D60" stroke-width="1.5" stroke-dasharray="4 4" />
    <path d="M 0,60 L 0,100" stroke="#464D60" stroke-width="1.5" stroke-dasharray="4 4" />
  </g>

  <!-- High-End Typography -->
  <text x="250" y="420" font-family="-apple-system, BlinkMacSystemFont, 'Segoe UI', Roboto, Helvetica, Arial, sans-serif" font-size="28" font-weight="400" fill="#FFFFFF" text-anchor="middle" letter-spacing="6">SPEC<tspan font-weight="800" fill="#FF5D00">FORGE</tspan></text>
  <text x="250" y="445" font-family="'SF Mono', 'Fira Code', 'Roboto Mono', monospace" font-size="11" font-weight="500" fill="#687187" text-anchor="middle" letter-spacing="8">VALIDATION PROTOCOL</text>
</svg>
```

### Option 2: The Continuous Compilation Ribbon (The Elegant 'S')
**Vibe: Linear, Vercel, Next.js.**
This design visualizes the *process* of compilation. It is a highly fluid, elegant geometric 'S' constructed from multiple sweeping, translucent, glowing ribbons. It mimics fiber optics or laser light turning raw text/intent into a beautifully validated loop. It feels cutting-edge, lightweight, and blazingly fast.

```xml
<svg xmlns="http://www.w3.org/2000/svg" viewBox="0 0 500 500" width="100%" height="100%">
  <defs>
    <!-- Ultra-minimal Dark Background -->
    <rect id="bgRect" width="500" height="500" fill="#050505" />
    
    <!-- Prismatic Energy Gradients -->
    <linearGradient id="ribbon1" x1="0%" y1="0%" x2="100%" y2="100%">
      <stop offset="0%" stop-color="#FF2A54" />
      <stop offset="50%" stop-color="#FF5D00" />
      <stop offset="100%" stop-color="#FFB800" />
    </linearGradient>
    
    <linearGradient id="ribbon2" x1="100%" y1="100%" x2="0%" y2="0%">
      <stop offset="0%" stop-color="#FF2A54" stop-opacity="0.8" />
      <stop offset="100%" stop-color="#9C27B0" stop-opacity="0.2" />
    </linearGradient>

    <linearGradient id="fadeLine" x1="0%" y1="0%" x2="100%" y2="0%">
      <stop offset="0%" stop-color="#FF5D00" stop-opacity="0"/>
      <stop offset="50%" stop-color="#FF5D00" stop-opacity="0.6"/>
      <stop offset="100%" stop-color="#FF5D00" stop-opacity="0"/>
    </linearGradient>

    <!-- Deep Ambient Glow -->
    <filter id="ambientGlow" x="-50%" y="-50%" width="200%" height="200%">
      <feGaussianBlur stdDeviation="25" result="blur" />
      <feMerge>
        <feMergeNode in="blur" />
        <feMergeNode in="SourceGraphic" />
      </feMerge>
    </filter>
  </defs>

  <use href="#bgRect" />

  <!-- Background Laser Lines (The .spec file lines) -->
  <g stroke="url(#fadeLine)" stroke-width="1" opacity="0.5">
    <line x1="50" y1="150" x2="450" y2="150" />
    <line x1="50" y1="250" x2="450" y2="250" />
    <line x1="50" y1="350" x2="450" y2="350" />
  </g>

  <!-- THE ELEGANT 'S' RIBBON GRAPH -->
  <g transform="translate(150, 100)" fill="none" stroke-linecap="round" stroke-linejoin="round">
    
    <!-- Ambient Core Glow -->
    <path d="M 200 40 C 200 -20, 0 -20, 0 80 C 0 180, 200 120, 200 220 C 200 320, 0 320, 0 260" 
          stroke="#FF5D00" stroke-width="20" opacity="0.15" filter="url(#ambientGlow)" />

    <!-- Ribbon Back Layer (Darker, translucent) -->
    <path d="M 200 40 C 200 -20, 0 -20, 0 80 C 0 180, 200 120, 200 220 C 200 320, 0 320, 0 260" 
          stroke="url(#ribbon2)" stroke-width="24" />

    <!-- Ribbon Front Layer (Bright, sharp focus) -->
    <path d="M 200 40 C 200 -20, 0 -20, 0 80 C 0 180, 200 120, 200 220 C 200 320, 0 320, 0 260" 
          stroke="url(#ribbon1)" stroke-width="12" />
          
    <!-- Core White Hot Center Path -->
    <path d="M 200 40 C 200 -20, 0 -20, 0 80 C 0 180, 200 120, 200 220 C 200 320, 0 320, 0 260" 
          stroke="#FFFFFF" stroke-width="3" opacity="0.8" />

    <!-- Precision Graph Nodes along the curve -->
    <g fill="#050505" stroke="#FFFFFF" stroke-width="3">
      <circle cx="160" cy="18" r="8" />
      <circle cx="20" cy="80" r="8" />
      <circle cx="100" cy="150" r="8" />
      <circle cx="180" cy="220" r="8" />
      <circle cx="40" cy="282" r="8" />
    </g>
  </g>

  <!-- Custom Typography -->
  <text x="250" y="430" font-family="-apple-system, system-ui, sans-serif" font-size="34" font-weight="300" fill="#EAEAEA" text-anchor="middle" letter-spacing="4">Spec<tspan font-weight="700">Forge</tspan></text>
</svg>
